<svg width="360" height="65" viewBox="0 0 360 65" fill="none" xmlns="http://www.w3.org/2000/svg">
    <path d="M-15.4994 48.7529L0.140625 48.7529L0.140626 64.3929L-15.4994 64.3929L-15.4994 48.7529Z" fill="#BAFFE6"/>
    <path d="M-15.4994 17.4727L0.140625 17.4727L0.140626 33.1127L-15.4994 33.1127L-15.4994 17.4727Z" fill="#77FFCE" fill-opacity="0.13"/>
    <path d="M0.139307 17.4727L15.7793 17.4727L15.7793 33.1127L0.139308 33.1127L0.139307 17.4727Z" fill="#77FFCE"/>
    <path d="M15.6979 0.203126L31.3379 0.203125L31.3379 15.8431L15.6979 15.8431L15.6979 0.203126Z" fill="#77FFCE" fill-opacity="0.13"/>
    <path d="M31.3795 0.203126L47.0195 0.203125L47.0195 15.8431L31.3795 15.8431L31.3795 0.203126Z" fill="#BAFFE6"/>
    <path d="M44.9829 48.834L56.998 48.834L56.998 60.6454L44.9829 60.6454L44.9829 48.834Z" fill="#4075FF"/>
    <path d="M47.0592 0.203126L62.6992 0.203125L62.6992 15.8431L47.0592 15.8431L47.0592 0.203126Z" fill="#BAFFE6"/>
    <path d="M62.6999 31.5244L70.8457 31.5244L70.8457 39.6702L62.6999 39.6703L62.6999 31.5244Z" fill="#BAFFE6"/>
    <path d="M62.7408 0.203126L78.3809 0.203125L78.3809 15.8431L62.7408 15.8431L62.7408 0.203126Z" fill="#77FFCE"/>
    <path d="M78.4206 15.8838L94.0605 15.8838L94.0605 31.5238L78.4206 31.5238L78.4206 15.8838Z" fill="#77FFCE"/>
    <path d="M78.4206 0.203126L94.0605 0.203125L94.0605 15.8431L78.4206 15.8431L78.4206 0.203126Z" fill="#BAFFE6"/>
    <path d="M93.9791 0.203126L109.619 0.203125L109.619 15.8431L93.9791 15.8431L93.9791 0.203126Z" fill="#FF52A5"/>
    <path d="M125.258 0.203126L140.898 0.203125L140.898 15.8431L125.258 15.8431L125.258 0.203126Z" fill="#E1FFF4"/>
    <path d="M140.899 0.203126L156.539 0.203125L156.539 15.8431L140.899 15.8431L140.899 0.203126Z" fill="#E1FFF4"/>
    <path d="M156.54 15.6396L172.18 15.6396L172.18 31.2797L156.54 31.2797L156.54 15.6396Z" fill="#E1FFF4"/>
    <path d="M172.178 15.6396L187.818 15.6396L187.818 31.2797L172.178 31.2797L172.178 15.6396Z" fill="#BAFFE6"/>
    <path d="M172.178 1.36729e-06L187.818 0L187.818 15.64L172.178 15.64L172.178 1.36729e-06Z" fill="#BAFFE6"/>
    <path d="M224.597 32.543L235.391 32.543L235.391 43.3362L224.597 43.3362L224.597 32.543Z" fill="#BAFFE6"/>
    <path d="M203.46 15.6396L219.1 15.6396L219.1 31.2797L203.46 31.2797L203.46 15.6396Z" fill="#F3FFFB"/>
    <path d="M203.46 1.36729e-06L219.1 0L219.1 15.64L203.46 15.64L203.46 1.36729e-06Z" fill="#E1FFF4"/>
    <path d="M219.1 15.6396L234.74 15.6396L234.74 31.2797L219.1 31.2797L219.1 15.6396Z" fill="#F3FFFB"/>
    <path d="M219.1 1.36729e-06L234.74 0L234.74 15.64L219.1 15.64L219.1 1.36729e-06Z" fill="#BAFFE6"/>
    <path d="M250.38 1.36729e-06L266.02 0L266.02 15.64L250.38 15.64L250.38 1.36729e-06Z" fill="#E1FFF4"/>
    <path d="M266.018 15.6396L281.658 15.6396L281.658 31.2797L266.018 31.2797L266.018 15.6396Z" fill="#77FFCE"/>
    <path d="M266.018 1.36729e-06L281.658 0L281.658 15.64L266.018 15.64L266.018 1.36729e-06Z" fill="#BAFFE6"/>
    <path d="M281.659 1.36729e-06L297.299 0L297.299 15.64L281.659 15.64L281.659 1.36729e-06Z" fill="#F3FFFB"/>
    <path d="M297.299 31.2793L312.939 31.2793L312.939 46.9193L297.299 46.9193L297.299 31.2793Z" fill="#BAFFE6"/>
    <path d="M297.299 1.36729e-06L312.939 0L312.939 15.64L297.299 15.64L297.299 1.36729e-06Z" fill="#BAFFE6"/>
    <path d="M312.94 1.36729e-06L328.58 0L328.58 15.64L312.94 15.64L312.94 1.36729e-06Z" fill="#F3FFFB"/>
    <path d="M328.579 1.36729e-06L344.219 0L344.219 15.64L328.579 15.64L328.579 1.36729e-06Z" fill="#BAFFE6"/>
    <path d="M344.219 31.2793L359.859 31.2793L359.859 46.9193L344.219 46.9193L344.219 31.2793Z" fill="#E1FFF4"/>
    <path d="M359.858 1.36729e-06L375.498 0L375.498 15.64L359.858 15.64L359.858 1.36729e-06Z" fill="#BAFFE6"/>
    <path d="M109.619 38.1631L120.209 38.1631L120.209 48.7527L109.619 48.7527L109.619 38.1631Z" fill="#FFD541"/>
    <path d="M328.58 46.8789L339.17 46.8789L339.17 57.4685L328.58 57.4685L328.58 46.8789Z" fill="#4075FF"/>
    <path opacity="0.22" d="M290.298 52.1514H281.615V43.4685H290.298V52.1514Z" fill="#77FFCE"/>
</svg>
